<svg width="300" height="373" viewBox="0 0 300 373" fill="none" xmlns="http://www.w3.org/2000/svg">
<path d="M168.75 274.688V286.75C166.687 286.813 164.625 286.5 162.625 285.813L66.8125 254.25C64.25 253.375 62.5 251 62.5 248.313V239.688L168.75 274.688Z" fill="#BDBDBD"/>
<path d="M168.75 100V223.563L138.625 213.875L62.5 239.687L37.5 56.25L168.75 100Z" fill="#EEEEEE"/>
<path d="M138.625 21.25V89.9375L38.75 56.25L138.625 21.25Z" fill="#E0E0E0"/>
<path d="M168.75 223.562V274.687L62.5 239.687L138.625 213.875L168.75 223.562Z" fill="#E0E0E0"/>
<path d="M135.412 160.693L119.431 165.256L132.044 191.312L138.956 193.825C141.25 194.612 142.681 193.656 144.431 191.343C145.994 188.75 146.669 184.581 144.512 179.337L144.356 178.856L135.412 160.693Z" fill="#88A10C"/>
<path d="M92.9999 119.307C89.4312 118.007 85.2874 117.95 82.9874 121L82.7937 121.307L75.7749 133.657L93.0937 150.338L103.594 133.332L99.1624 124.288C97.6749 121.457 95.8937 120.413 94.7562 119.95L93.3312 119.432C93.2249 119.394 93.1124 119.35 92.9999 119.307Z" fill="#88A10C"/>
<path d="M104.7 181.587L80.2564 172.693L77.3502 177.781L76.8752 178.837C76.3939 180.475 76.9002 182.506 78.2252 185.493L77.3065 183.6C78.819 187.843 82.6502 193.637 88.3752 196.356L88.7752 196.55L104.769 202.368L104.7 181.587Z" fill="#96B10E"/>
<path d="M116.925 178.494L108.562 193.282L119.119 214.763L118.737 207.313L129.956 211.394C130.112 211.469 130.269 211.532 130.425 211.588C131.562 212 132.575 211.85 133.262 210.188L144.487 191.257C144.469 191.282 144.444 191.307 144.425 191.338C142.675 193.65 141.244 194.607 138.95 193.819L132.037 191.307L117.387 185.975L116.925 178.494Z" fill="#96B10E"/>
<path d="M94.4374 119.825C94.1999 119.738 94.0062 119.681 93.8687 119.625L94.7687 119.95C94.6437 119.906 94.5374 119.863 94.4374 119.825ZM117.875 128.331C117.669 128.256 117.456 128.188 117.225 128.131L94.7687 119.956C95.9062 120.425 97.6874 121.469 99.1749 124.294L103.606 133.338L111.212 148.863L105.619 150.506L124.675 157.35L133 142.694L127.319 144.256L121.081 131.562C120.494 130.162 119.644 128.975 117.875 128.331Z" fill="#96B10E"/>
<path d="M82.0938 145.531L63.1626 138.644L69.2751 144.594L64.2938 153.256C63.6688 154.206 63.4438 155.4 64.8001 157.875L77.3064 183.606L78.2251 185.5C76.9001 182.512 76.3938 180.481 76.8751 178.844C76.9563 178.569 77.0626 178.306 77.2001 178.05L77.3501 177.787L80.2563 172.7L86.7251 161.375L92.8751 167.244L82.0938 145.531Z" fill="#88A10C"/>
<path d="M243.75 247.75V256.625C243.75 259.25 242.063 261.563 239.625 262.5L174.812 285.625C172.875 286.313 170.813 286.688 168.75 286.75V274.688L243.75 247.75Z" fill="#757575"/>
<path d="M243.75 247.75L168.75 274.688V223.562L243.75 247.75Z" fill="#BDBDBD"/>
<path d="M273.125 65L243.75 247.75L168.75 223.563V100L273.125 65Z" fill="#E0E0E0"/>
<path d="M271.875 65L168.75 100L138.625 89.9375V21.875L271.875 65Z" fill="#EEEEEE"/>
<path d="M138.656 23.8625L263.231 65.0187L168.75 96.7062L47.1312 56.1688L138.656 23.8625ZM138.625 20.5625L37.5 56.25L168.75 100L273.125 65L138.625 20.5625Z" fill="#F5F5F5"/>
<path d="M218.25 248H105.75C102.3 248 99.5 250.8 99.5 254.25V291.75C99.5 295.2 102.3 298 105.75 298H218.25C221.7 298 224.5 295.2 224.5 291.75V254.25C224.5 250.8 221.7 248 218.25 248Z" fill="#96B10E"/>
<path d="M105.75 254.25H218.25V291.75H105.75V254.25Z" fill="#96B10E"/>
<path d="M149.5 263.625C147.014 263.625 144.629 264.613 142.871 266.371C141.113 268.129 140.125 270.514 140.125 273C140.125 275.486 141.113 277.871 142.871 279.629C144.629 281.387 147.014 282.375 149.5 282.375C151.986 282.375 154.371 281.387 156.129 279.629C157.887 277.871 158.875 275.486 158.875 273C158.875 270.514 157.887 268.129 156.129 266.371C154.371 264.613 151.986 263.625 149.5 263.625ZM124.5 263.625C122.014 263.625 119.629 264.613 117.871 266.371C116.113 268.129 115.125 270.514 115.125 273C115.125 275.486 116.113 277.871 117.871 279.629C119.629 281.387 122.014 282.375 124.5 282.375C126.986 282.375 129.371 281.387 131.129 279.629C132.887 277.871 133.875 275.486 133.875 273C133.875 270.514 132.887 268.129 131.129 266.371C129.371 264.613 126.986 263.625 124.5 263.625ZM199.5 263.625C197.014 263.625 194.629 264.613 192.871 266.371C191.113 268.129 190.125 270.514 190.125 273C190.125 275.486 191.113 277.871 192.871 279.629C194.629 281.387 197.014 282.375 199.5 282.375C201.986 282.375 204.371 281.387 206.129 279.629C207.887 277.871 208.875 275.486 208.875 273C208.875 270.514 207.887 268.129 206.129 266.371C204.371 264.613 201.986 263.625 199.5 263.625ZM174.5 263.625C172.014 263.625 169.629 264.613 167.871 266.371C166.113 268.129 165.125 270.514 165.125 273C165.125 275.486 166.113 277.871 167.871 279.629C169.629 281.387 172.014 282.375 174.5 282.375C176.986 282.375 179.371 281.387 181.129 279.629C182.887 277.871 183.875 275.486 183.875 273C183.875 270.514 182.887 268.129 181.129 266.371C179.371 264.613 176.986 263.625 174.5 263.625Z" fill="white"/>
<path d="M165.469 341.162L159.063 347.999L136.841 327.493L143.25 320.649L165.469 341.162Z" fill="#96B10E"/>
<path d="M183.291 308.644L152.219 341.59L159.062 348L190.128 315.059L183.291 308.644Z" fill="#96B10E"/>
</svg>
